<svg xmlns="http://www.w3.org/2000/svg" xmlns:xlink="http://www.w3.org/1999/xlink" width="96" height="96" viewBox="0 0 96 96">
  <defs>
    <clipPath id="clip-path">
      <rect id="Rectangle_73" data-name="Rectangle 73" width="75.933" height="22.296" fill="none"/>
    </clipPath>
  </defs>
  <g id="Group_177" data-name="Group 177" transform="translate(-468 -1086)">
    <circle id="Ellipse_56" data-name="Ellipse 56" cx="48" cy="48" r="48" transform="translate(468 1086)" fill="#e71727"/>
    <g id="Group_149" data-name="Group 149" transform="translate(478 1123)">
      <rect id="Rectangle_69" data-name="Rectangle 69" width="75.85" height="0.565" transform="translate(0 12.135)" fill="#635d5d"/>
      <g id="Group_148" data-name="Group 148">
        <g id="Group_147" data-name="Group 147" clip-path="url(#clip-path)">
          <path id="Path_178" data-name="Path 178" d="M248.875,5.282H253l-2.175-3.516-4,6.348-1.823,0L249.862.5a1.148,1.148,0,0,1,.953-.5,1.133,1.133,0,0,1,.94.482l4.884,7.635-1.823,0L253.96,6.7h-4.176Z" transform="translate(-215.164 0)" fill="#fff"/>
          <path id="Path_179" data-name="Path 179" d="M421.038,7.263V.646H419.49V7.915a.765.765,0,0,0,.229.533.786.786,0,0,0,.563.234h7.04l.921-1.419Z" transform="translate(-368.412 -0.567)" fill="#fff"/>
          <path id="Path_180" data-name="Path 180" d="M173.468,6.07a2.718,2.718,0,0,0,0-5.435h-6.763V8.674h1.545V2.056h5.115a1.3,1.3,0,0,1,0,2.6l-4.359,0,4.614,4.019h2.24l-3.1-2.6Z" transform="translate(-146.407 -0.558)" fill="#fff"/>
          <path id="Path_181" data-name="Path 181" d="M59.617,8.672a4.019,4.019,0,1,1,0-8.039h4.671a4.019,4.019,0,0,1,0,8.039Zm4.566-1.416a2.6,2.6,0,1,0,0-5.2H59.722a2.6,2.6,0,1,0,0,5.2h4.461" transform="translate(-48.828 -0.556)" fill="#fff"/>
          <path id="Path_182" data-name="Path 182" d="M338.113,8.686a4.018,4.018,0,1,1,0-8.036h5.549l-.915,1.419h-4.528a2.6,2.6,0,1,0,0,5.2h5.565l-.9,1.416Z" transform="translate(-293.409 -0.571)" fill="#fff"/>
          <path id="Path_183" data-name="Path 183" d="M492.629,7.256a2.6,2.6,0,0,1-2.5-1.893h6.6l.91-1.416h-7.511a2.6,2.6,0,0,1,2.5-1.893h4.534L498.07.633h-5.541a4.019,4.019,0,1,0,0,8.039H497.3l.907-1.416Z" transform="translate(-429.028 -0.556)" fill="#fff"/>
          <path id="Path_184" data-name="Path 184" d="M572.439,1.186a.712.712,0,1,1,.711.708.71.71,0,0,1-.711-.708m.711.9a.9.9,0,0,0,0-1.806.9.9,0,1,0,0,1.806M573.066.653a.833.833,0,0,1,.267.027.279.279,0,0,1,.191.283l-.011.081a.245.245,0,0,1-.121.178l-.043.022.234.42h-.229l-.207-.39h-.132v.39h-.2V.653h.253m.073.458.162-.067.029-.086-.078-.121a.436.436,0,0,0-.186-.022h-.051v.3h.124" transform="translate(-502.567 -0.249)" fill="#fff"/>
          <path id="Path_185" data-name="Path 185" d="M.014,136.967H3.7v.913H1.193v1.29h2.35v.915H1.193v1.47h2.6v.918H.014Z" transform="translate(-0.012 -120.29)" fill="#191718"/>
          <rect id="Rectangle_70" data-name="Rectangle 70" width="1.893" height="0.853" transform="translate(4.948 19.743)" fill="#191718"/>
          <path id="Path_186" data-name="Path 186" d="M66.375,142.433v-5.5h2.068c.983-.062,1.99.347,1.99,1.421a1.287,1.287,0,0,1-.969,1.209v.014a1.4,1.4,0,0,1,1.211,1.432c0,1.093-1.37,1.489-2.218,1.427Zm2.105-3.293c.5,0,.77-.207.77-.649s-.275-.649-.77-.649h-.923v1.3Zm0,2.377c.555,0,.937-.1.937-.73s-.382-.732-.937-.732h-.923v1.462Z" transform="translate(-58.293 -120.252)" fill="#191718"/>
          <path id="Path_187" data-name="Path 187" d="M116.724,136.967v3.446a2.4,2.4,0,0,1-4.773,0v-3.446h1.185v2.988c0,.929.043,1.777,1.2,1.777s1.206-.848,1.206-1.777v-2.988Z" transform="translate(-98.32 -120.29)" fill="#191718"/>
          <path id="Path_188" data-name="Path 188" d="M164.622,137.719a.809.809,0,0,0-.915-.829c-.436,0-.878.226-.878.708,0,.6.533.662,1,.778.84.213,2.076.45,2.076,1.556,0,1.365-1.19,1.836-2.372,1.836-1.257,0-2.151-.487-2.111-1.877h1.2a.872.872,0,0,0,.923,1.023c.471,0,1.1-.145,1.1-.732,0-.649-.786-.695-1.26-.816-.767-.191-1.82-.541-1.82-1.518,0-1.257,1.158-1.812,2.286-1.812a1.683,1.683,0,0,1,1.9,1.683Z" transform="translate(-141.77 -119.472)" fill="#191718"/>
          <rect id="Rectangle_71" data-name="Rectangle 71" width="1.182" height="5.506" transform="translate(25.353 16.677)" fill="#191718"/>
          <path id="Path_189" data-name="Path 189" d="M232.476,142.467,230.3,137.89l-.014.019v4.558h-1.107v-5.505h1.753l2.1,4.329.016-.014v-4.315h1.107v5.505Z" transform="translate(-201.277 -120.284)" fill="#191718"/>
          <path id="Path_190" data-name="Path 190" d="M280.723,136.967h3.691v.913H281.9v1.29h2.35v.915H281.9v1.47H284.5v.918h-3.774Z" transform="translate(-246.542 -120.29)" fill="#191718"/>
          <path id="Path_191" data-name="Path 191" d="M324.061,137.719a.806.806,0,0,0-.916-.829c-.436,0-.878.226-.878.708,0,.6.536.662,1.01.778.837.213,2.07.45,2.07,1.556,0,1.365-1.19,1.836-2.369,1.836-1.26,0-2.151-.487-2.111-1.877h1.2a.87.87,0,0,0,.921,1.023c.474,0,1.1-.145,1.1-.732,0-.649-.784-.695-1.257-.816-.77-.191-1.823-.541-1.823-1.518,0-1.257,1.158-1.812,2.288-1.812a1.685,1.685,0,0,1,1.9,1.683Z" transform="translate(-281.797 -119.472)" fill="#191718"/>
          <path id="Path_192" data-name="Path 192" d="M369.139,137.719a.806.806,0,0,0-.913-.829c-.436,0-.878.226-.878.708,0,.6.533.662,1.007.778.837.213,2.07.45,2.07,1.556,0,1.365-1.187,1.836-2.369,1.836-1.257,0-2.151-.487-2.111-1.877h1.2a.87.87,0,0,0,.923,1.023c.471,0,1.1-.145,1.1-.732,0-.649-.786-.695-1.26-.816-.77-.191-1.823-.541-1.823-1.518,0-1.257,1.16-1.812,2.288-1.812a1.685,1.685,0,0,1,1.9,1.683Z" transform="translate(-321.386 -119.472)" fill="#191718"/>
          <path id="Path_193" data-name="Path 193" d="M434.951,137.719a.806.806,0,0,0-.913-.829c-.436,0-.878.226-.878.708,0,.6.533.662,1.007.778.837.213,2.073.45,2.073,1.556,0,1.365-1.19,1.836-2.372,1.836-1.257,0-2.148-.487-2.111-1.877h1.2a.871.871,0,0,0,.923,1.023c.474,0,1.1-.145,1.1-.732,0-.649-.786-.695-1.26-.816-.77-.191-1.82-.541-1.82-1.518,0-1.257,1.158-1.812,2.286-1.812a1.687,1.687,0,0,1,1.9,1.683Z" transform="translate(-379.185 -119.472)" fill="#191718"/>
          <path id="Path_194" data-name="Path 194" d="M484.182,136.967v3.446a2.4,2.4,0,0,1-4.773,0v-3.446h1.182v2.988c0,.929.048,1.777,1.2,1.777s1.206-.848,1.206-1.777v-2.988Z" transform="translate(-421.035 -120.29)" fill="#191718"/>
          <rect id="Rectangle_72" data-name="Rectangle 72" width="1.182" height="5.506" transform="translate(64.602 16.677)" fill="#191718"/>
          <path id="Path_195" data-name="Path 195" d="M548.233,136.967h4.458v.913h-1.639v4.593h-1.179V137.88h-1.639Z" transform="translate(-481.479 -120.29)" fill="#191718"/>
          <path id="Path_196" data-name="Path 196" d="M592.624,136.967h3.691v.913h-2.509v1.29h2.348v.915h-2.348v1.47H596.4v.918h-3.774Z" transform="translate(-520.465 -120.29)" fill="#191718"/>
        </g>
      </g>
    </g>
  </g>
</svg>
